<mxfile host="app.diagrams.net" agent="Mozilla/5.0 (Windows NT 10.0; Win64; x64) AppleWebKit/537.36 (KHTML, like Gecko) Chrome/137.0.0.0 Safari/537.36" version="25.0.3">
  <diagram id="R2lEEEUBdFMjLlhIrx00" name="Page-1">
    <mxGraphModel dx="811" dy="1609" grid="1" gridSize="10" guides="1" tooltips="1" connect="1" arrows="1" fold="1" page="1" pageScale="1" pageWidth="850" pageHeight="1100" math="0" shadow="0" extFonts="Permanent Marker^https://fonts.googleapis.com/css?family=Permanent+Marker">
      <root>
        <mxCell id="0" />
        <mxCell id="1" parent="0" />
        <mxCell id="kMlaYkscyfcXsW-1nqYv-1" value="teachers" style="shape=table;startSize=25;container=1;collapsible=0;childLayout=tableLayout;fixedRows=1;rowLines=1;fontStyle=1;align=center;resizeLast=1;" vertex="1" parent="1">
          <mxGeometry x="277" y="41" width="166" height="132" as="geometry" />
        </mxCell>
        <mxCell id="kMlaYkscyfcXsW-1nqYv-2" style="shape=tableRow;horizontal=0;startSize=0;swimlaneHead=0;swimlaneBody=0;fillColor=none;collapsible=0;dropTarget=0;points=[[0,0.5],[1,0.5]];portConstraint=eastwest;top=0;left=0;right=0;bottom=0;" vertex="1" parent="kMlaYkscyfcXsW-1nqYv-1">
          <mxGeometry y="25" width="166" height="21" as="geometry" />
        </mxCell>
        <mxCell id="kMlaYkscyfcXsW-1nqYv-3" value="int" style="shape=partialRectangle;connectable=0;fillColor=none;top=0;left=0;bottom=0;right=0;align=left;spacingLeft=2;overflow=hidden;fontSize=11;" vertex="1" parent="kMlaYkscyfcXsW-1nqYv-2">
          <mxGeometry width="72" height="21" as="geometry">
            <mxRectangle width="72" height="21" as="alternateBounds" />
          </mxGeometry>
        </mxCell>
        <mxCell id="kMlaYkscyfcXsW-1nqYv-4" value="teacher_id" style="shape=partialRectangle;connectable=0;fillColor=none;top=0;left=0;bottom=0;right=0;align=left;spacingLeft=2;overflow=hidden;fontSize=11;" vertex="1" parent="kMlaYkscyfcXsW-1nqYv-2">
          <mxGeometry x="72" width="94" height="21" as="geometry">
            <mxRectangle width="94" height="21" as="alternateBounds" />
          </mxGeometry>
        </mxCell>
        <mxCell id="kMlaYkscyfcXsW-1nqYv-5" style="shape=tableRow;horizontal=0;startSize=0;swimlaneHead=0;swimlaneBody=0;fillColor=none;collapsible=0;dropTarget=0;points=[[0,0.5],[1,0.5]];portConstraint=eastwest;top=0;left=0;right=0;bottom=0;" vertex="1" parent="kMlaYkscyfcXsW-1nqYv-1">
          <mxGeometry y="46" width="166" height="21" as="geometry" />
        </mxCell>
        <mxCell id="kMlaYkscyfcXsW-1nqYv-6" value="varchar(255)" style="shape=partialRectangle;connectable=0;fillColor=none;top=0;left=0;bottom=0;right=0;align=left;spacingLeft=2;overflow=hidden;fontSize=11;" vertex="1" parent="kMlaYkscyfcXsW-1nqYv-5">
          <mxGeometry width="72" height="21" as="geometry">
            <mxRectangle width="72" height="21" as="alternateBounds" />
          </mxGeometry>
        </mxCell>
        <mxCell id="kMlaYkscyfcXsW-1nqYv-7" value="teacher_name" style="shape=partialRectangle;connectable=0;fillColor=none;top=0;left=0;bottom=0;right=0;align=left;spacingLeft=2;overflow=hidden;fontSize=11;" vertex="1" parent="kMlaYkscyfcXsW-1nqYv-5">
          <mxGeometry x="72" width="94" height="21" as="geometry">
            <mxRectangle width="94" height="21" as="alternateBounds" />
          </mxGeometry>
        </mxCell>
        <mxCell id="kMlaYkscyfcXsW-1nqYv-8" style="shape=tableRow;horizontal=0;startSize=0;swimlaneHead=0;swimlaneBody=0;fillColor=none;collapsible=0;dropTarget=0;points=[[0,0.5],[1,0.5]];portConstraint=eastwest;top=0;left=0;right=0;bottom=0;" vertex="1" parent="kMlaYkscyfcXsW-1nqYv-1">
          <mxGeometry y="67" width="166" height="21" as="geometry" />
        </mxCell>
        <mxCell id="kMlaYkscyfcXsW-1nqYv-9" value="int" style="shape=partialRectangle;connectable=0;fillColor=none;top=0;left=0;bottom=0;right=0;align=left;spacingLeft=2;overflow=hidden;fontSize=11;" vertex="1" parent="kMlaYkscyfcXsW-1nqYv-8">
          <mxGeometry width="72" height="21" as="geometry">
            <mxRectangle width="72" height="21" as="alternateBounds" />
          </mxGeometry>
        </mxCell>
        <mxCell id="kMlaYkscyfcXsW-1nqYv-10" value="gender" style="shape=partialRectangle;connectable=0;fillColor=none;top=0;left=0;bottom=0;right=0;align=left;spacingLeft=2;overflow=hidden;fontSize=11;" vertex="1" parent="kMlaYkscyfcXsW-1nqYv-8">
          <mxGeometry x="72" width="94" height="21" as="geometry">
            <mxRectangle width="94" height="21" as="alternateBounds" />
          </mxGeometry>
        </mxCell>
        <mxCell id="kMlaYkscyfcXsW-1nqYv-11" style="shape=tableRow;horizontal=0;startSize=0;swimlaneHead=0;swimlaneBody=0;fillColor=none;collapsible=0;dropTarget=0;points=[[0,0.5],[1,0.5]];portConstraint=eastwest;top=0;left=0;right=0;bottom=0;" vertex="1" parent="kMlaYkscyfcXsW-1nqYv-1">
          <mxGeometry y="88" width="166" height="21" as="geometry" />
        </mxCell>
        <mxCell id="kMlaYkscyfcXsW-1nqYv-12" value="int" style="shape=partialRectangle;connectable=0;fillColor=none;top=0;left=0;bottom=0;right=0;align=left;spacingLeft=2;overflow=hidden;fontSize=11;" vertex="1" parent="kMlaYkscyfcXsW-1nqYv-11">
          <mxGeometry width="72" height="21" as="geometry">
            <mxRectangle width="72" height="21" as="alternateBounds" />
          </mxGeometry>
        </mxCell>
        <mxCell id="kMlaYkscyfcXsW-1nqYv-13" value="position" style="shape=partialRectangle;connectable=0;fillColor=none;top=0;left=0;bottom=0;right=0;align=left;spacingLeft=2;overflow=hidden;fontSize=11;" vertex="1" parent="kMlaYkscyfcXsW-1nqYv-11">
          <mxGeometry x="72" width="94" height="21" as="geometry">
            <mxRectangle width="94" height="21" as="alternateBounds" />
          </mxGeometry>
        </mxCell>
        <mxCell id="kMlaYkscyfcXsW-1nqYv-14" style="shape=tableRow;horizontal=0;startSize=0;swimlaneHead=0;swimlaneBody=0;fillColor=none;collapsible=0;dropTarget=0;points=[[0,0.5],[1,0.5]];portConstraint=eastwest;top=0;left=0;right=0;bottom=0;" vertex="1" parent="kMlaYkscyfcXsW-1nqYv-1">
          <mxGeometry y="109" width="166" height="21" as="geometry" />
        </mxCell>
        <mxCell id="kMlaYkscyfcXsW-1nqYv-15" value="varchar(255)" style="shape=partialRectangle;connectable=0;fillColor=none;top=0;left=0;bottom=0;right=0;align=left;spacingLeft=2;overflow=hidden;fontSize=11;" vertex="1" parent="kMlaYkscyfcXsW-1nqYv-14">
          <mxGeometry width="72" height="21" as="geometry">
            <mxRectangle width="72" height="21" as="alternateBounds" />
          </mxGeometry>
        </mxCell>
        <mxCell id="kMlaYkscyfcXsW-1nqYv-16" value="password" style="shape=partialRectangle;connectable=0;fillColor=none;top=0;left=0;bottom=0;right=0;align=left;spacingLeft=2;overflow=hidden;fontSize=11;" vertex="1" parent="kMlaYkscyfcXsW-1nqYv-14">
          <mxGeometry x="72" width="94" height="21" as="geometry">
            <mxRectangle width="94" height="21" as="alternateBounds" />
          </mxGeometry>
        </mxCell>
        <mxCell id="kMlaYkscyfcXsW-1nqYv-17" value="papers" style="shape=table;startSize=25;container=1;collapsible=0;childLayout=tableLayout;fixedRows=1;rowLines=1;fontStyle=1;align=center;resizeLast=1;" vertex="1" parent="1">
          <mxGeometry x="20" y="31" width="157" height="153" as="geometry" />
        </mxCell>
        <mxCell id="kMlaYkscyfcXsW-1nqYv-18" style="shape=tableRow;horizontal=0;startSize=0;swimlaneHead=0;swimlaneBody=0;fillColor=none;collapsible=0;dropTarget=0;points=[[0,0.5],[1,0.5]];portConstraint=eastwest;top=0;left=0;right=0;bottom=0;" vertex="1" parent="kMlaYkscyfcXsW-1nqYv-17">
          <mxGeometry y="25" width="157" height="21" as="geometry" />
        </mxCell>
        <mxCell id="kMlaYkscyfcXsW-1nqYv-19" value="int" style="shape=partialRectangle;connectable=0;fillColor=none;top=0;left=0;bottom=0;right=0;align=left;spacingLeft=2;overflow=hidden;fontSize=11;" vertex="1" parent="kMlaYkscyfcXsW-1nqYv-18">
          <mxGeometry width="72" height="21" as="geometry">
            <mxRectangle width="72" height="21" as="alternateBounds" />
          </mxGeometry>
        </mxCell>
        <mxCell id="kMlaYkscyfcXsW-1nqYv-20" value="paper_id" style="shape=partialRectangle;connectable=0;fillColor=none;top=0;left=0;bottom=0;right=0;align=left;spacingLeft=2;overflow=hidden;fontSize=11;" vertex="1" parent="kMlaYkscyfcXsW-1nqYv-18">
          <mxGeometry x="72" width="85" height="21" as="geometry">
            <mxRectangle width="85" height="21" as="alternateBounds" />
          </mxGeometry>
        </mxCell>
        <mxCell id="kMlaYkscyfcXsW-1nqYv-21" style="shape=tableRow;horizontal=0;startSize=0;swimlaneHead=0;swimlaneBody=0;fillColor=none;collapsible=0;dropTarget=0;points=[[0,0.5],[1,0.5]];portConstraint=eastwest;top=0;left=0;right=0;bottom=0;" vertex="1" parent="kMlaYkscyfcXsW-1nqYv-17">
          <mxGeometry y="46" width="157" height="21" as="geometry" />
        </mxCell>
        <mxCell id="kMlaYkscyfcXsW-1nqYv-22" value="varchar(255)" style="shape=partialRectangle;connectable=0;fillColor=none;top=0;left=0;bottom=0;right=0;align=left;spacingLeft=2;overflow=hidden;fontSize=11;" vertex="1" parent="kMlaYkscyfcXsW-1nqYv-21">
          <mxGeometry width="72" height="21" as="geometry">
            <mxRectangle width="72" height="21" as="alternateBounds" />
          </mxGeometry>
        </mxCell>
        <mxCell id="kMlaYkscyfcXsW-1nqYv-23" value="paper_name" style="shape=partialRectangle;connectable=0;fillColor=none;top=0;left=0;bottom=0;right=0;align=left;spacingLeft=2;overflow=hidden;fontSize=11;" vertex="1" parent="kMlaYkscyfcXsW-1nqYv-21">
          <mxGeometry x="72" width="85" height="21" as="geometry">
            <mxRectangle width="85" height="21" as="alternateBounds" />
          </mxGeometry>
        </mxCell>
        <mxCell id="kMlaYkscyfcXsW-1nqYv-24" style="shape=tableRow;horizontal=0;startSize=0;swimlaneHead=0;swimlaneBody=0;fillColor=none;collapsible=0;dropTarget=0;points=[[0,0.5],[1,0.5]];portConstraint=eastwest;top=0;left=0;right=0;bottom=0;" vertex="1" parent="kMlaYkscyfcXsW-1nqYv-17">
          <mxGeometry y="67" width="157" height="21" as="geometry" />
        </mxCell>
        <mxCell id="kMlaYkscyfcXsW-1nqYv-25" value="varchar(255)" style="shape=partialRectangle;connectable=0;fillColor=none;top=0;left=0;bottom=0;right=0;align=left;spacingLeft=2;overflow=hidden;fontSize=11;" vertex="1" parent="kMlaYkscyfcXsW-1nqYv-24">
          <mxGeometry width="72" height="21" as="geometry">
            <mxRectangle width="72" height="21" as="alternateBounds" />
          </mxGeometry>
        </mxCell>
        <mxCell id="kMlaYkscyfcXsW-1nqYv-26" value="source" style="shape=partialRectangle;connectable=0;fillColor=none;top=0;left=0;bottom=0;right=0;align=left;spacingLeft=2;overflow=hidden;fontSize=11;" vertex="1" parent="kMlaYkscyfcXsW-1nqYv-24">
          <mxGeometry x="72" width="85" height="21" as="geometry">
            <mxRectangle width="85" height="21" as="alternateBounds" />
          </mxGeometry>
        </mxCell>
        <mxCell id="kMlaYkscyfcXsW-1nqYv-27" style="shape=tableRow;horizontal=0;startSize=0;swimlaneHead=0;swimlaneBody=0;fillColor=none;collapsible=0;dropTarget=0;points=[[0,0.5],[1,0.5]];portConstraint=eastwest;top=0;left=0;right=0;bottom=0;" vertex="1" parent="kMlaYkscyfcXsW-1nqYv-17">
          <mxGeometry y="88" width="157" height="21" as="geometry" />
        </mxCell>
        <mxCell id="kMlaYkscyfcXsW-1nqYv-28" value="int" style="shape=partialRectangle;connectable=0;fillColor=none;top=0;left=0;bottom=0;right=0;align=left;spacingLeft=2;overflow=hidden;fontSize=11;" vertex="1" parent="kMlaYkscyfcXsW-1nqYv-27">
          <mxGeometry width="72" height="21" as="geometry">
            <mxRectangle width="72" height="21" as="alternateBounds" />
          </mxGeometry>
        </mxCell>
        <mxCell id="kMlaYkscyfcXsW-1nqYv-29" value="post_year" style="shape=partialRectangle;connectable=0;fillColor=none;top=0;left=0;bottom=0;right=0;align=left;spacingLeft=2;overflow=hidden;fontSize=11;" vertex="1" parent="kMlaYkscyfcXsW-1nqYv-27">
          <mxGeometry x="72" width="85" height="21" as="geometry">
            <mxRectangle width="85" height="21" as="alternateBounds" />
          </mxGeometry>
        </mxCell>
        <mxCell id="kMlaYkscyfcXsW-1nqYv-30" style="shape=tableRow;horizontal=0;startSize=0;swimlaneHead=0;swimlaneBody=0;fillColor=none;collapsible=0;dropTarget=0;points=[[0,0.5],[1,0.5]];portConstraint=eastwest;top=0;left=0;right=0;bottom=0;" vertex="1" parent="kMlaYkscyfcXsW-1nqYv-17">
          <mxGeometry y="109" width="157" height="21" as="geometry" />
        </mxCell>
        <mxCell id="kMlaYkscyfcXsW-1nqYv-31" value="int" style="shape=partialRectangle;connectable=0;fillColor=none;top=0;left=0;bottom=0;right=0;align=left;spacingLeft=2;overflow=hidden;fontSize=11;" vertex="1" parent="kMlaYkscyfcXsW-1nqYv-30">
          <mxGeometry width="72" height="21" as="geometry">
            <mxRectangle width="72" height="21" as="alternateBounds" />
          </mxGeometry>
        </mxCell>
        <mxCell id="kMlaYkscyfcXsW-1nqYv-32" value="paper_type" style="shape=partialRectangle;connectable=0;fillColor=none;top=0;left=0;bottom=0;right=0;align=left;spacingLeft=2;overflow=hidden;fontSize=11;" vertex="1" parent="kMlaYkscyfcXsW-1nqYv-30">
          <mxGeometry x="72" width="85" height="21" as="geometry">
            <mxRectangle width="85" height="21" as="alternateBounds" />
          </mxGeometry>
        </mxCell>
        <mxCell id="kMlaYkscyfcXsW-1nqYv-33" style="shape=tableRow;horizontal=0;startSize=0;swimlaneHead=0;swimlaneBody=0;fillColor=none;collapsible=0;dropTarget=0;points=[[0,0.5],[1,0.5]];portConstraint=eastwest;top=0;left=0;right=0;bottom=0;" vertex="1" parent="kMlaYkscyfcXsW-1nqYv-17">
          <mxGeometry y="130" width="157" height="21" as="geometry" />
        </mxCell>
        <mxCell id="kMlaYkscyfcXsW-1nqYv-34" value="int" style="shape=partialRectangle;connectable=0;fillColor=none;top=0;left=0;bottom=0;right=0;align=left;spacingLeft=2;overflow=hidden;fontSize=11;" vertex="1" parent="kMlaYkscyfcXsW-1nqYv-33">
          <mxGeometry width="72" height="21" as="geometry">
            <mxRectangle width="72" height="21" as="alternateBounds" />
          </mxGeometry>
        </mxCell>
        <mxCell id="kMlaYkscyfcXsW-1nqYv-35" value="level" style="shape=partialRectangle;connectable=0;fillColor=none;top=0;left=0;bottom=0;right=0;align=left;spacingLeft=2;overflow=hidden;fontSize=11;" vertex="1" parent="kMlaYkscyfcXsW-1nqYv-33">
          <mxGeometry x="72" width="85" height="21" as="geometry">
            <mxRectangle width="85" height="21" as="alternateBounds" />
          </mxGeometry>
        </mxCell>
        <mxCell id="kMlaYkscyfcXsW-1nqYv-36" value="projects" style="shape=table;startSize=25;container=1;collapsible=0;childLayout=tableLayout;fixedRows=1;rowLines=1;fontStyle=1;align=center;resizeLast=1;" vertex="1" parent="1">
          <mxGeometry x="594" y="20" width="169" height="175" as="geometry" />
        </mxCell>
        <mxCell id="kMlaYkscyfcXsW-1nqYv-37" style="shape=tableRow;horizontal=0;startSize=0;swimlaneHead=0;swimlaneBody=0;fillColor=none;collapsible=0;dropTarget=0;points=[[0,0.5],[1,0.5]];portConstraint=eastwest;top=0;left=0;right=0;bottom=0;" vertex="1" parent="kMlaYkscyfcXsW-1nqYv-36">
          <mxGeometry y="25" width="169" height="21" as="geometry" />
        </mxCell>
        <mxCell id="kMlaYkscyfcXsW-1nqYv-38" value="int" style="shape=partialRectangle;connectable=0;fillColor=none;top=0;left=0;bottom=0;right=0;align=left;spacingLeft=2;overflow=hidden;fontSize=11;" vertex="1" parent="kMlaYkscyfcXsW-1nqYv-37">
          <mxGeometry width="72" height="21" as="geometry">
            <mxRectangle width="72" height="21" as="alternateBounds" />
          </mxGeometry>
        </mxCell>
        <mxCell id="kMlaYkscyfcXsW-1nqYv-39" value="project_id" style="shape=partialRectangle;connectable=0;fillColor=none;top=0;left=0;bottom=0;right=0;align=left;spacingLeft=2;overflow=hidden;fontSize=11;" vertex="1" parent="kMlaYkscyfcXsW-1nqYv-37">
          <mxGeometry x="72" width="97" height="21" as="geometry">
            <mxRectangle width="97" height="21" as="alternateBounds" />
          </mxGeometry>
        </mxCell>
        <mxCell id="kMlaYkscyfcXsW-1nqYv-40" style="shape=tableRow;horizontal=0;startSize=0;swimlaneHead=0;swimlaneBody=0;fillColor=none;collapsible=0;dropTarget=0;points=[[0,0.5],[1,0.5]];portConstraint=eastwest;top=0;left=0;right=0;bottom=0;" vertex="1" parent="kMlaYkscyfcXsW-1nqYv-36">
          <mxGeometry y="46" width="169" height="21" as="geometry" />
        </mxCell>
        <mxCell id="kMlaYkscyfcXsW-1nqYv-41" value="varchar(255)" style="shape=partialRectangle;connectable=0;fillColor=none;top=0;left=0;bottom=0;right=0;align=left;spacingLeft=2;overflow=hidden;fontSize=11;" vertex="1" parent="kMlaYkscyfcXsW-1nqYv-40">
          <mxGeometry width="72" height="21" as="geometry">
            <mxRectangle width="72" height="21" as="alternateBounds" />
          </mxGeometry>
        </mxCell>
        <mxCell id="kMlaYkscyfcXsW-1nqYv-42" value="project_name" style="shape=partialRectangle;connectable=0;fillColor=none;top=0;left=0;bottom=0;right=0;align=left;spacingLeft=2;overflow=hidden;fontSize=11;" vertex="1" parent="kMlaYkscyfcXsW-1nqYv-40">
          <mxGeometry x="72" width="97" height="21" as="geometry">
            <mxRectangle width="97" height="21" as="alternateBounds" />
          </mxGeometry>
        </mxCell>
        <mxCell id="kMlaYkscyfcXsW-1nqYv-43" style="shape=tableRow;horizontal=0;startSize=0;swimlaneHead=0;swimlaneBody=0;fillColor=none;collapsible=0;dropTarget=0;points=[[0,0.5],[1,0.5]];portConstraint=eastwest;top=0;left=0;right=0;bottom=0;" vertex="1" parent="kMlaYkscyfcXsW-1nqYv-36">
          <mxGeometry y="67" width="169" height="21" as="geometry" />
        </mxCell>
        <mxCell id="kMlaYkscyfcXsW-1nqYv-44" value="varchar(255)" style="shape=partialRectangle;connectable=0;fillColor=none;top=0;left=0;bottom=0;right=0;align=left;spacingLeft=2;overflow=hidden;fontSize=11;" vertex="1" parent="kMlaYkscyfcXsW-1nqYv-43">
          <mxGeometry width="72" height="21" as="geometry">
            <mxRectangle width="72" height="21" as="alternateBounds" />
          </mxGeometry>
        </mxCell>
        <mxCell id="kMlaYkscyfcXsW-1nqYv-45" value="project_source" style="shape=partialRectangle;connectable=0;fillColor=none;top=0;left=0;bottom=0;right=0;align=left;spacingLeft=2;overflow=hidden;fontSize=11;" vertex="1" parent="kMlaYkscyfcXsW-1nqYv-43">
          <mxGeometry x="72" width="97" height="21" as="geometry">
            <mxRectangle width="97" height="21" as="alternateBounds" />
          </mxGeometry>
        </mxCell>
        <mxCell id="kMlaYkscyfcXsW-1nqYv-46" style="shape=tableRow;horizontal=0;startSize=0;swimlaneHead=0;swimlaneBody=0;fillColor=none;collapsible=0;dropTarget=0;points=[[0,0.5],[1,0.5]];portConstraint=eastwest;top=0;left=0;right=0;bottom=0;" vertex="1" parent="kMlaYkscyfcXsW-1nqYv-36">
          <mxGeometry y="88" width="169" height="21" as="geometry" />
        </mxCell>
        <mxCell id="kMlaYkscyfcXsW-1nqYv-47" value="int" style="shape=partialRectangle;connectable=0;fillColor=none;top=0;left=0;bottom=0;right=0;align=left;spacingLeft=2;overflow=hidden;fontSize=11;" vertex="1" parent="kMlaYkscyfcXsW-1nqYv-46">
          <mxGeometry width="72" height="21" as="geometry">
            <mxRectangle width="72" height="21" as="alternateBounds" />
          </mxGeometry>
        </mxCell>
        <mxCell id="kMlaYkscyfcXsW-1nqYv-48" value="project_type" style="shape=partialRectangle;connectable=0;fillColor=none;top=0;left=0;bottom=0;right=0;align=left;spacingLeft=2;overflow=hidden;fontSize=11;" vertex="1" parent="kMlaYkscyfcXsW-1nqYv-46">
          <mxGeometry x="72" width="97" height="21" as="geometry">
            <mxRectangle width="97" height="21" as="alternateBounds" />
          </mxGeometry>
        </mxCell>
        <mxCell id="kMlaYkscyfcXsW-1nqYv-49" style="shape=tableRow;horizontal=0;startSize=0;swimlaneHead=0;swimlaneBody=0;fillColor=none;collapsible=0;dropTarget=0;points=[[0,0.5],[1,0.5]];portConstraint=eastwest;top=0;left=0;right=0;bottom=0;" vertex="1" parent="kMlaYkscyfcXsW-1nqYv-36">
          <mxGeometry y="109" width="169" height="21" as="geometry" />
        </mxCell>
        <mxCell id="kMlaYkscyfcXsW-1nqYv-50" value="int" style="shape=partialRectangle;connectable=0;fillColor=none;top=0;left=0;bottom=0;right=0;align=left;spacingLeft=2;overflow=hidden;fontSize=11;" vertex="1" parent="kMlaYkscyfcXsW-1nqYv-49">
          <mxGeometry width="72" height="21" as="geometry">
            <mxRectangle width="72" height="21" as="alternateBounds" />
          </mxGeometry>
        </mxCell>
        <mxCell id="kMlaYkscyfcXsW-1nqYv-51" value="project_money" style="shape=partialRectangle;connectable=0;fillColor=none;top=0;left=0;bottom=0;right=0;align=left;spacingLeft=2;overflow=hidden;fontSize=11;" vertex="1" parent="kMlaYkscyfcXsW-1nqYv-49">
          <mxGeometry x="72" width="97" height="21" as="geometry">
            <mxRectangle width="97" height="21" as="alternateBounds" />
          </mxGeometry>
        </mxCell>
        <mxCell id="kMlaYkscyfcXsW-1nqYv-52" style="shape=tableRow;horizontal=0;startSize=0;swimlaneHead=0;swimlaneBody=0;fillColor=none;collapsible=0;dropTarget=0;points=[[0,0.5],[1,0.5]];portConstraint=eastwest;top=0;left=0;right=0;bottom=0;" vertex="1" parent="kMlaYkscyfcXsW-1nqYv-36">
          <mxGeometry y="130" width="169" height="21" as="geometry" />
        </mxCell>
        <mxCell id="kMlaYkscyfcXsW-1nqYv-53" value="int" style="shape=partialRectangle;connectable=0;fillColor=none;top=0;left=0;bottom=0;right=0;align=left;spacingLeft=2;overflow=hidden;fontSize=11;" vertex="1" parent="kMlaYkscyfcXsW-1nqYv-52">
          <mxGeometry width="72" height="21" as="geometry">
            <mxRectangle width="72" height="21" as="alternateBounds" />
          </mxGeometry>
        </mxCell>
        <mxCell id="kMlaYkscyfcXsW-1nqYv-54" value="start_year" style="shape=partialRectangle;connectable=0;fillColor=none;top=0;left=0;bottom=0;right=0;align=left;spacingLeft=2;overflow=hidden;fontSize=11;" vertex="1" parent="kMlaYkscyfcXsW-1nqYv-52">
          <mxGeometry x="72" width="97" height="21" as="geometry">
            <mxRectangle width="97" height="21" as="alternateBounds" />
          </mxGeometry>
        </mxCell>
        <mxCell id="kMlaYkscyfcXsW-1nqYv-55" style="shape=tableRow;horizontal=0;startSize=0;swimlaneHead=0;swimlaneBody=0;fillColor=none;collapsible=0;dropTarget=0;points=[[0,0.5],[1,0.5]];portConstraint=eastwest;top=0;left=0;right=0;bottom=0;" vertex="1" parent="kMlaYkscyfcXsW-1nqYv-36">
          <mxGeometry y="151" width="169" height="21" as="geometry" />
        </mxCell>
        <mxCell id="kMlaYkscyfcXsW-1nqYv-56" value="int" style="shape=partialRectangle;connectable=0;fillColor=none;top=0;left=0;bottom=0;right=0;align=left;spacingLeft=2;overflow=hidden;fontSize=11;" vertex="1" parent="kMlaYkscyfcXsW-1nqYv-55">
          <mxGeometry width="72" height="21" as="geometry">
            <mxRectangle width="72" height="21" as="alternateBounds" />
          </mxGeometry>
        </mxCell>
        <mxCell id="kMlaYkscyfcXsW-1nqYv-57" value="end_year" style="shape=partialRectangle;connectable=0;fillColor=none;top=0;left=0;bottom=0;right=0;align=left;spacingLeft=2;overflow=hidden;fontSize=11;" vertex="1" parent="kMlaYkscyfcXsW-1nqYv-55">
          <mxGeometry x="72" width="97" height="21" as="geometry">
            <mxRectangle width="97" height="21" as="alternateBounds" />
          </mxGeometry>
        </mxCell>
        <mxCell id="kMlaYkscyfcXsW-1nqYv-58" value="courses" style="shape=table;startSize=25;container=1;collapsible=0;childLayout=tableLayout;fixedRows=1;rowLines=1;fontStyle=1;align=center;resizeLast=1;" vertex="1" parent="1">
          <mxGeometry x="864" y="52" width="161" height="110" as="geometry" />
        </mxCell>
        <mxCell id="kMlaYkscyfcXsW-1nqYv-59" style="shape=tableRow;horizontal=0;startSize=0;swimlaneHead=0;swimlaneBody=0;fillColor=none;collapsible=0;dropTarget=0;points=[[0,0.5],[1,0.5]];portConstraint=eastwest;top=0;left=0;right=0;bottom=0;" vertex="1" parent="kMlaYkscyfcXsW-1nqYv-58">
          <mxGeometry y="25" width="161" height="21" as="geometry" />
        </mxCell>
        <mxCell id="kMlaYkscyfcXsW-1nqYv-60" value="int" style="shape=partialRectangle;connectable=0;fillColor=none;top=0;left=0;bottom=0;right=0;align=left;spacingLeft=2;overflow=hidden;fontSize=11;" vertex="1" parent="kMlaYkscyfcXsW-1nqYv-59">
          <mxGeometry width="72" height="21" as="geometry">
            <mxRectangle width="72" height="21" as="alternateBounds" />
          </mxGeometry>
        </mxCell>
        <mxCell id="kMlaYkscyfcXsW-1nqYv-61" value="course_id" style="shape=partialRectangle;connectable=0;fillColor=none;top=0;left=0;bottom=0;right=0;align=left;spacingLeft=2;overflow=hidden;fontSize=11;" vertex="1" parent="kMlaYkscyfcXsW-1nqYv-59">
          <mxGeometry x="72" width="89" height="21" as="geometry">
            <mxRectangle width="89" height="21" as="alternateBounds" />
          </mxGeometry>
        </mxCell>
        <mxCell id="kMlaYkscyfcXsW-1nqYv-62" style="shape=tableRow;horizontal=0;startSize=0;swimlaneHead=0;swimlaneBody=0;fillColor=none;collapsible=0;dropTarget=0;points=[[0,0.5],[1,0.5]];portConstraint=eastwest;top=0;left=0;right=0;bottom=0;" vertex="1" parent="kMlaYkscyfcXsW-1nqYv-58">
          <mxGeometry y="46" width="161" height="21" as="geometry" />
        </mxCell>
        <mxCell id="kMlaYkscyfcXsW-1nqYv-63" value="varchar(255)" style="shape=partialRectangle;connectable=0;fillColor=none;top=0;left=0;bottom=0;right=0;align=left;spacingLeft=2;overflow=hidden;fontSize=11;" vertex="1" parent="kMlaYkscyfcXsW-1nqYv-62">
          <mxGeometry width="72" height="21" as="geometry">
            <mxRectangle width="72" height="21" as="alternateBounds" />
          </mxGeometry>
        </mxCell>
        <mxCell id="kMlaYkscyfcXsW-1nqYv-64" value="course_name" style="shape=partialRectangle;connectable=0;fillColor=none;top=0;left=0;bottom=0;right=0;align=left;spacingLeft=2;overflow=hidden;fontSize=11;" vertex="1" parent="kMlaYkscyfcXsW-1nqYv-62">
          <mxGeometry x="72" width="89" height="21" as="geometry">
            <mxRectangle width="89" height="21" as="alternateBounds" />
          </mxGeometry>
        </mxCell>
        <mxCell id="kMlaYkscyfcXsW-1nqYv-65" style="shape=tableRow;horizontal=0;startSize=0;swimlaneHead=0;swimlaneBody=0;fillColor=none;collapsible=0;dropTarget=0;points=[[0,0.5],[1,0.5]];portConstraint=eastwest;top=0;left=0;right=0;bottom=0;" vertex="1" parent="kMlaYkscyfcXsW-1nqYv-58">
          <mxGeometry y="67" width="161" height="21" as="geometry" />
        </mxCell>
        <mxCell id="kMlaYkscyfcXsW-1nqYv-66" value="int" style="shape=partialRectangle;connectable=0;fillColor=none;top=0;left=0;bottom=0;right=0;align=left;spacingLeft=2;overflow=hidden;fontSize=11;" vertex="1" parent="kMlaYkscyfcXsW-1nqYv-65">
          <mxGeometry width="72" height="21" as="geometry">
            <mxRectangle width="72" height="21" as="alternateBounds" />
          </mxGeometry>
        </mxCell>
        <mxCell id="kMlaYkscyfcXsW-1nqYv-67" value="hour" style="shape=partialRectangle;connectable=0;fillColor=none;top=0;left=0;bottom=0;right=0;align=left;spacingLeft=2;overflow=hidden;fontSize=11;" vertex="1" parent="kMlaYkscyfcXsW-1nqYv-65">
          <mxGeometry x="72" width="89" height="21" as="geometry">
            <mxRectangle width="89" height="21" as="alternateBounds" />
          </mxGeometry>
        </mxCell>
        <mxCell id="kMlaYkscyfcXsW-1nqYv-68" style="shape=tableRow;horizontal=0;startSize=0;swimlaneHead=0;swimlaneBody=0;fillColor=none;collapsible=0;dropTarget=0;points=[[0,0.5],[1,0.5]];portConstraint=eastwest;top=0;left=0;right=0;bottom=0;" vertex="1" parent="kMlaYkscyfcXsW-1nqYv-58">
          <mxGeometry y="88" width="161" height="21" as="geometry" />
        </mxCell>
        <mxCell id="kMlaYkscyfcXsW-1nqYv-69" value="int" style="shape=partialRectangle;connectable=0;fillColor=none;top=0;left=0;bottom=0;right=0;align=left;spacingLeft=2;overflow=hidden;fontSize=11;" vertex="1" parent="kMlaYkscyfcXsW-1nqYv-68">
          <mxGeometry width="72" height="21" as="geometry">
            <mxRectangle width="72" height="21" as="alternateBounds" />
          </mxGeometry>
        </mxCell>
        <mxCell id="kMlaYkscyfcXsW-1nqYv-70" value="course_type" style="shape=partialRectangle;connectable=0;fillColor=none;top=0;left=0;bottom=0;right=0;align=left;spacingLeft=2;overflow=hidden;fontSize=11;" vertex="1" parent="kMlaYkscyfcXsW-1nqYv-68">
          <mxGeometry x="72" width="89" height="21" as="geometry">
            <mxRectangle width="89" height="21" as="alternateBounds" />
          </mxGeometry>
        </mxCell>
        <mxCell id="kMlaYkscyfcXsW-1nqYv-71" value="teacher_post_paper" style="shape=table;startSize=25;container=1;collapsible=0;childLayout=tableLayout;fixedRows=1;rowLines=1;fontStyle=1;align=center;resizeLast=1;" vertex="1" parent="1">
          <mxGeometry x="56" y="305" width="147" height="109" as="geometry" />
        </mxCell>
        <mxCell id="kMlaYkscyfcXsW-1nqYv-72" style="shape=tableRow;horizontal=0;startSize=0;swimlaneHead=0;swimlaneBody=0;fillColor=none;collapsible=0;dropTarget=0;points=[[0,0.5],[1,0.5]];portConstraint=eastwest;top=0;left=0;right=0;bottom=0;" vertex="1" parent="kMlaYkscyfcXsW-1nqYv-71">
          <mxGeometry y="25" width="147" height="21" as="geometry" />
        </mxCell>
        <mxCell id="kMlaYkscyfcXsW-1nqYv-73" value="int" style="shape=partialRectangle;connectable=0;fillColor=none;top=0;left=0;bottom=0;right=0;align=left;spacingLeft=2;overflow=hidden;fontSize=11;" vertex="1" parent="kMlaYkscyfcXsW-1nqYv-72">
          <mxGeometry width="18" height="21" as="geometry">
            <mxRectangle width="18" height="21" as="alternateBounds" />
          </mxGeometry>
        </mxCell>
        <mxCell id="kMlaYkscyfcXsW-1nqYv-74" value="teacher_id" style="shape=partialRectangle;connectable=0;fillColor=none;top=0;left=0;bottom=0;right=0;align=left;spacingLeft=2;overflow=hidden;fontSize=11;" vertex="1" parent="kMlaYkscyfcXsW-1nqYv-72">
          <mxGeometry x="18" width="129" height="21" as="geometry">
            <mxRectangle width="129" height="21" as="alternateBounds" />
          </mxGeometry>
        </mxCell>
        <mxCell id="kMlaYkscyfcXsW-1nqYv-75" style="shape=tableRow;horizontal=0;startSize=0;swimlaneHead=0;swimlaneBody=0;fillColor=none;collapsible=0;dropTarget=0;points=[[0,0.5],[1,0.5]];portConstraint=eastwest;top=0;left=0;right=0;bottom=0;" vertex="1" parent="kMlaYkscyfcXsW-1nqYv-71">
          <mxGeometry y="46" width="147" height="21" as="geometry" />
        </mxCell>
        <mxCell id="kMlaYkscyfcXsW-1nqYv-76" value="int" style="shape=partialRectangle;connectable=0;fillColor=none;top=0;left=0;bottom=0;right=0;align=left;spacingLeft=2;overflow=hidden;fontSize=11;" vertex="1" parent="kMlaYkscyfcXsW-1nqYv-75">
          <mxGeometry width="18" height="21" as="geometry">
            <mxRectangle width="18" height="21" as="alternateBounds" />
          </mxGeometry>
        </mxCell>
        <mxCell id="kMlaYkscyfcXsW-1nqYv-77" value="paper_id" style="shape=partialRectangle;connectable=0;fillColor=none;top=0;left=0;bottom=0;right=0;align=left;spacingLeft=2;overflow=hidden;fontSize=11;" vertex="1" parent="kMlaYkscyfcXsW-1nqYv-75">
          <mxGeometry x="18" width="129" height="21" as="geometry">
            <mxRectangle width="129" height="21" as="alternateBounds" />
          </mxGeometry>
        </mxCell>
        <mxCell id="kMlaYkscyfcXsW-1nqYv-78" style="shape=tableRow;horizontal=0;startSize=0;swimlaneHead=0;swimlaneBody=0;fillColor=none;collapsible=0;dropTarget=0;points=[[0,0.5],[1,0.5]];portConstraint=eastwest;top=0;left=0;right=0;bottom=0;" vertex="1" parent="kMlaYkscyfcXsW-1nqYv-71">
          <mxGeometry y="67" width="147" height="21" as="geometry" />
        </mxCell>
        <mxCell id="kMlaYkscyfcXsW-1nqYv-79" value="int" style="shape=partialRectangle;connectable=0;fillColor=none;top=0;left=0;bottom=0;right=0;align=left;spacingLeft=2;overflow=hidden;fontSize=11;" vertex="1" parent="kMlaYkscyfcXsW-1nqYv-78">
          <mxGeometry width="18" height="21" as="geometry">
            <mxRectangle width="18" height="21" as="alternateBounds" />
          </mxGeometry>
        </mxCell>
        <mxCell id="kMlaYkscyfcXsW-1nqYv-80" value="teacher_paper_rank" style="shape=partialRectangle;connectable=0;fillColor=none;top=0;left=0;bottom=0;right=0;align=left;spacingLeft=2;overflow=hidden;fontSize=11;" vertex="1" parent="kMlaYkscyfcXsW-1nqYv-78">
          <mxGeometry x="18" width="129" height="21" as="geometry">
            <mxRectangle width="129" height="21" as="alternateBounds" />
          </mxGeometry>
        </mxCell>
        <mxCell id="kMlaYkscyfcXsW-1nqYv-81" style="shape=tableRow;horizontal=0;startSize=0;swimlaneHead=0;swimlaneBody=0;fillColor=none;collapsible=0;dropTarget=0;points=[[0,0.5],[1,0.5]];portConstraint=eastwest;top=0;left=0;right=0;bottom=0;" vertex="1" parent="kMlaYkscyfcXsW-1nqYv-71">
          <mxGeometry y="88" width="147" height="21" as="geometry" />
        </mxCell>
        <mxCell id="kMlaYkscyfcXsW-1nqYv-82" value="int" style="shape=partialRectangle;connectable=0;fillColor=none;top=0;left=0;bottom=0;right=0;align=left;spacingLeft=2;overflow=hidden;fontSize=11;" vertex="1" parent="kMlaYkscyfcXsW-1nqYv-81">
          <mxGeometry width="18" height="21" as="geometry">
            <mxRectangle width="18" height="21" as="alternateBounds" />
          </mxGeometry>
        </mxCell>
        <mxCell id="kMlaYkscyfcXsW-1nqYv-83" value="is_cor" style="shape=partialRectangle;connectable=0;fillColor=none;top=0;left=0;bottom=0;right=0;align=left;spacingLeft=2;overflow=hidden;fontSize=11;" vertex="1" parent="kMlaYkscyfcXsW-1nqYv-81">
          <mxGeometry x="18" width="129" height="21" as="geometry">
            <mxRectangle width="129" height="21" as="alternateBounds" />
          </mxGeometry>
        </mxCell>
        <mxCell id="kMlaYkscyfcXsW-1nqYv-84" value="teacher_hold_project" style="shape=table;startSize=25;container=1;collapsible=0;childLayout=tableLayout;fixedRows=1;rowLines=1;fontStyle=1;align=center;resizeLast=1;" vertex="1" parent="1">
          <mxGeometry x="452" y="305" width="184" height="109" as="geometry" />
        </mxCell>
        <mxCell id="kMlaYkscyfcXsW-1nqYv-85" style="shape=tableRow;horizontal=0;startSize=0;swimlaneHead=0;swimlaneBody=0;fillColor=none;collapsible=0;dropTarget=0;points=[[0,0.5],[1,0.5]];portConstraint=eastwest;top=0;left=0;right=0;bottom=0;" vertex="1" parent="kMlaYkscyfcXsW-1nqYv-84">
          <mxGeometry y="25" width="184" height="21" as="geometry" />
        </mxCell>
        <mxCell id="kMlaYkscyfcXsW-1nqYv-86" value="int" style="shape=partialRectangle;connectable=0;fillColor=none;top=0;left=0;bottom=0;right=0;align=left;spacingLeft=2;overflow=hidden;fontSize=11;" vertex="1" parent="kMlaYkscyfcXsW-1nqYv-85">
          <mxGeometry width="18" height="21" as="geometry">
            <mxRectangle width="18" height="21" as="alternateBounds" />
          </mxGeometry>
        </mxCell>
        <mxCell id="kMlaYkscyfcXsW-1nqYv-87" value="teacher_id" style="shape=partialRectangle;connectable=0;fillColor=none;top=0;left=0;bottom=0;right=0;align=left;spacingLeft=2;overflow=hidden;fontSize=11;" vertex="1" parent="kMlaYkscyfcXsW-1nqYv-85">
          <mxGeometry x="18" width="166" height="21" as="geometry">
            <mxRectangle width="166" height="21" as="alternateBounds" />
          </mxGeometry>
        </mxCell>
        <mxCell id="kMlaYkscyfcXsW-1nqYv-88" style="shape=tableRow;horizontal=0;startSize=0;swimlaneHead=0;swimlaneBody=0;fillColor=none;collapsible=0;dropTarget=0;points=[[0,0.5],[1,0.5]];portConstraint=eastwest;top=0;left=0;right=0;bottom=0;" vertex="1" parent="kMlaYkscyfcXsW-1nqYv-84">
          <mxGeometry y="46" width="184" height="21" as="geometry" />
        </mxCell>
        <mxCell id="kMlaYkscyfcXsW-1nqYv-89" value="int" style="shape=partialRectangle;connectable=0;fillColor=none;top=0;left=0;bottom=0;right=0;align=left;spacingLeft=2;overflow=hidden;fontSize=11;" vertex="1" parent="kMlaYkscyfcXsW-1nqYv-88">
          <mxGeometry width="18" height="21" as="geometry">
            <mxRectangle width="18" height="21" as="alternateBounds" />
          </mxGeometry>
        </mxCell>
        <mxCell id="kMlaYkscyfcXsW-1nqYv-90" value="project_id" style="shape=partialRectangle;connectable=0;fillColor=none;top=0;left=0;bottom=0;right=0;align=left;spacingLeft=2;overflow=hidden;fontSize=11;" vertex="1" parent="kMlaYkscyfcXsW-1nqYv-88">
          <mxGeometry x="18" width="166" height="21" as="geometry">
            <mxRectangle width="166" height="21" as="alternateBounds" />
          </mxGeometry>
        </mxCell>
        <mxCell id="kMlaYkscyfcXsW-1nqYv-91" style="shape=tableRow;horizontal=0;startSize=0;swimlaneHead=0;swimlaneBody=0;fillColor=none;collapsible=0;dropTarget=0;points=[[0,0.5],[1,0.5]];portConstraint=eastwest;top=0;left=0;right=0;bottom=0;" vertex="1" parent="kMlaYkscyfcXsW-1nqYv-84">
          <mxGeometry y="67" width="184" height="21" as="geometry" />
        </mxCell>
        <mxCell id="kMlaYkscyfcXsW-1nqYv-92" value="int" style="shape=partialRectangle;connectable=0;fillColor=none;top=0;left=0;bottom=0;right=0;align=left;spacingLeft=2;overflow=hidden;fontSize=11;" vertex="1" parent="kMlaYkscyfcXsW-1nqYv-91">
          <mxGeometry width="18" height="21" as="geometry">
            <mxRectangle width="18" height="21" as="alternateBounds" />
          </mxGeometry>
        </mxCell>
        <mxCell id="kMlaYkscyfcXsW-1nqYv-93" value="teacher_project_rank" style="shape=partialRectangle;connectable=0;fillColor=none;top=0;left=0;bottom=0;right=0;align=left;spacingLeft=2;overflow=hidden;fontSize=11;" vertex="1" parent="kMlaYkscyfcXsW-1nqYv-91">
          <mxGeometry x="18" width="166" height="21" as="geometry">
            <mxRectangle width="166" height="21" as="alternateBounds" />
          </mxGeometry>
        </mxCell>
        <mxCell id="kMlaYkscyfcXsW-1nqYv-94" style="shape=tableRow;horizontal=0;startSize=0;swimlaneHead=0;swimlaneBody=0;fillColor=none;collapsible=0;dropTarget=0;points=[[0,0.5],[1,0.5]];portConstraint=eastwest;top=0;left=0;right=0;bottom=0;" vertex="1" parent="kMlaYkscyfcXsW-1nqYv-84">
          <mxGeometry y="88" width="184" height="21" as="geometry" />
        </mxCell>
        <mxCell id="kMlaYkscyfcXsW-1nqYv-95" value="int" style="shape=partialRectangle;connectable=0;fillColor=none;top=0;left=0;bottom=0;right=0;align=left;spacingLeft=2;overflow=hidden;fontSize=11;" vertex="1" parent="kMlaYkscyfcXsW-1nqYv-94">
          <mxGeometry width="18" height="21" as="geometry">
            <mxRectangle width="18" height="21" as="alternateBounds" />
          </mxGeometry>
        </mxCell>
        <mxCell id="kMlaYkscyfcXsW-1nqYv-96" value="teacher_hold_projectmoney" style="shape=partialRectangle;connectable=0;fillColor=none;top=0;left=0;bottom=0;right=0;align=left;spacingLeft=2;overflow=hidden;fontSize=11;" vertex="1" parent="kMlaYkscyfcXsW-1nqYv-94">
          <mxGeometry x="18" width="166" height="21" as="geometry">
            <mxRectangle width="166" height="21" as="alternateBounds" />
          </mxGeometry>
        </mxCell>
        <mxCell id="kMlaYkscyfcXsW-1nqYv-97" value="teacher_teach_course" style="shape=table;startSize=25;container=1;collapsible=0;childLayout=tableLayout;fixedRows=1;rowLines=1;fontStyle=1;align=center;resizeLast=1;" vertex="1" parent="1">
          <mxGeometry x="736" y="295" width="149" height="131" as="geometry" />
        </mxCell>
        <mxCell id="kMlaYkscyfcXsW-1nqYv-98" style="shape=tableRow;horizontal=0;startSize=0;swimlaneHead=0;swimlaneBody=0;fillColor=none;collapsible=0;dropTarget=0;points=[[0,0.5],[1,0.5]];portConstraint=eastwest;top=0;left=0;right=0;bottom=0;" vertex="1" parent="kMlaYkscyfcXsW-1nqYv-97">
          <mxGeometry y="25" width="149" height="21" as="geometry" />
        </mxCell>
        <mxCell id="kMlaYkscyfcXsW-1nqYv-99" value="int" style="shape=partialRectangle;connectable=0;fillColor=none;top=0;left=0;bottom=0;right=0;align=left;spacingLeft=2;overflow=hidden;fontSize=11;" vertex="1" parent="kMlaYkscyfcXsW-1nqYv-98">
          <mxGeometry width="18" height="21" as="geometry">
            <mxRectangle width="18" height="21" as="alternateBounds" />
          </mxGeometry>
        </mxCell>
        <mxCell id="kMlaYkscyfcXsW-1nqYv-100" value="teacher_id" style="shape=partialRectangle;connectable=0;fillColor=none;top=0;left=0;bottom=0;right=0;align=left;spacingLeft=2;overflow=hidden;fontSize=11;" vertex="1" parent="kMlaYkscyfcXsW-1nqYv-98">
          <mxGeometry x="18" width="131" height="21" as="geometry">
            <mxRectangle width="131" height="21" as="alternateBounds" />
          </mxGeometry>
        </mxCell>
        <mxCell id="kMlaYkscyfcXsW-1nqYv-101" style="shape=tableRow;horizontal=0;startSize=0;swimlaneHead=0;swimlaneBody=0;fillColor=none;collapsible=0;dropTarget=0;points=[[0,0.5],[1,0.5]];portConstraint=eastwest;top=0;left=0;right=0;bottom=0;" vertex="1" parent="kMlaYkscyfcXsW-1nqYv-97">
          <mxGeometry y="46" width="149" height="21" as="geometry" />
        </mxCell>
        <mxCell id="kMlaYkscyfcXsW-1nqYv-102" value="int" style="shape=partialRectangle;connectable=0;fillColor=none;top=0;left=0;bottom=0;right=0;align=left;spacingLeft=2;overflow=hidden;fontSize=11;" vertex="1" parent="kMlaYkscyfcXsW-1nqYv-101">
          <mxGeometry width="18" height="21" as="geometry">
            <mxRectangle width="18" height="21" as="alternateBounds" />
          </mxGeometry>
        </mxCell>
        <mxCell id="kMlaYkscyfcXsW-1nqYv-103" value="course_id" style="shape=partialRectangle;connectable=0;fillColor=none;top=0;left=0;bottom=0;right=0;align=left;spacingLeft=2;overflow=hidden;fontSize=11;" vertex="1" parent="kMlaYkscyfcXsW-1nqYv-101">
          <mxGeometry x="18" width="131" height="21" as="geometry">
            <mxRectangle width="131" height="21" as="alternateBounds" />
          </mxGeometry>
        </mxCell>
        <mxCell id="kMlaYkscyfcXsW-1nqYv-104" style="shape=tableRow;horizontal=0;startSize=0;swimlaneHead=0;swimlaneBody=0;fillColor=none;collapsible=0;dropTarget=0;points=[[0,0.5],[1,0.5]];portConstraint=eastwest;top=0;left=0;right=0;bottom=0;" vertex="1" parent="kMlaYkscyfcXsW-1nqYv-97">
          <mxGeometry y="67" width="149" height="21" as="geometry" />
        </mxCell>
        <mxCell id="kMlaYkscyfcXsW-1nqYv-105" value="int" style="shape=partialRectangle;connectable=0;fillColor=none;top=0;left=0;bottom=0;right=0;align=left;spacingLeft=2;overflow=hidden;fontSize=11;" vertex="1" parent="kMlaYkscyfcXsW-1nqYv-104">
          <mxGeometry width="18" height="21" as="geometry">
            <mxRectangle width="18" height="21" as="alternateBounds" />
          </mxGeometry>
        </mxCell>
        <mxCell id="kMlaYkscyfcXsW-1nqYv-106" value="year" style="shape=partialRectangle;connectable=0;fillColor=none;top=0;left=0;bottom=0;right=0;align=left;spacingLeft=2;overflow=hidden;fontSize=11;" vertex="1" parent="kMlaYkscyfcXsW-1nqYv-104">
          <mxGeometry x="18" width="131" height="21" as="geometry">
            <mxRectangle width="131" height="21" as="alternateBounds" />
          </mxGeometry>
        </mxCell>
        <mxCell id="kMlaYkscyfcXsW-1nqYv-107" style="shape=tableRow;horizontal=0;startSize=0;swimlaneHead=0;swimlaneBody=0;fillColor=none;collapsible=0;dropTarget=0;points=[[0,0.5],[1,0.5]];portConstraint=eastwest;top=0;left=0;right=0;bottom=0;" vertex="1" parent="kMlaYkscyfcXsW-1nqYv-97">
          <mxGeometry y="88" width="149" height="21" as="geometry" />
        </mxCell>
        <mxCell id="kMlaYkscyfcXsW-1nqYv-108" value="int" style="shape=partialRectangle;connectable=0;fillColor=none;top=0;left=0;bottom=0;right=0;align=left;spacingLeft=2;overflow=hidden;fontSize=11;" vertex="1" parent="kMlaYkscyfcXsW-1nqYv-107">
          <mxGeometry width="18" height="21" as="geometry">
            <mxRectangle width="18" height="21" as="alternateBounds" />
          </mxGeometry>
        </mxCell>
        <mxCell id="kMlaYkscyfcXsW-1nqYv-109" value="term" style="shape=partialRectangle;connectable=0;fillColor=none;top=0;left=0;bottom=0;right=0;align=left;spacingLeft=2;overflow=hidden;fontSize=11;" vertex="1" parent="kMlaYkscyfcXsW-1nqYv-107">
          <mxGeometry x="18" width="131" height="21" as="geometry">
            <mxRectangle width="131" height="21" as="alternateBounds" />
          </mxGeometry>
        </mxCell>
        <mxCell id="kMlaYkscyfcXsW-1nqYv-110" style="shape=tableRow;horizontal=0;startSize=0;swimlaneHead=0;swimlaneBody=0;fillColor=none;collapsible=0;dropTarget=0;points=[[0,0.5],[1,0.5]];portConstraint=eastwest;top=0;left=0;right=0;bottom=0;" vertex="1" parent="kMlaYkscyfcXsW-1nqYv-97">
          <mxGeometry y="109" width="149" height="21" as="geometry" />
        </mxCell>
        <mxCell id="kMlaYkscyfcXsW-1nqYv-111" value="int" style="shape=partialRectangle;connectable=0;fillColor=none;top=0;left=0;bottom=0;right=0;align=left;spacingLeft=2;overflow=hidden;fontSize=11;" vertex="1" parent="kMlaYkscyfcXsW-1nqYv-110">
          <mxGeometry width="18" height="21" as="geometry">
            <mxRectangle width="18" height="21" as="alternateBounds" />
          </mxGeometry>
        </mxCell>
        <mxCell id="kMlaYkscyfcXsW-1nqYv-112" value="own_hour" style="shape=partialRectangle;connectable=0;fillColor=none;top=0;left=0;bottom=0;right=0;align=left;spacingLeft=2;overflow=hidden;fontSize=11;" vertex="1" parent="kMlaYkscyfcXsW-1nqYv-110">
          <mxGeometry x="18" width="131" height="21" as="geometry">
            <mxRectangle width="131" height="21" as="alternateBounds" />
          </mxGeometry>
        </mxCell>
        <mxCell id="kMlaYkscyfcXsW-1nqYv-113" value="发表" style="curved=1;startArrow=ERmandOne;startSize=10;;endArrow=ERmany;endSize=10;;exitX=0.13;exitY=1;entryX=0.83;entryY=0;rounded=0;" edge="1" parent="1" source="kMlaYkscyfcXsW-1nqYv-1" target="kMlaYkscyfcXsW-1nqYv-71">
          <mxGeometry relative="1" as="geometry">
            <Array as="points">
              <mxPoint x="231" y="245" />
            </Array>
          </mxGeometry>
        </mxCell>
        <mxCell id="kMlaYkscyfcXsW-1nqYv-114" value="被发表" style="curved=1;startArrow=ERmandOne;startSize=10;;endArrow=ERmany;endSize=10;;exitX=0.5;exitY=1;entryX=0.4;entryY=0;rounded=0;" edge="1" parent="1" source="kMlaYkscyfcXsW-1nqYv-17" target="kMlaYkscyfcXsW-1nqYv-71">
          <mxGeometry relative="1" as="geometry">
            <Array as="points">
              <mxPoint x="99" y="245" />
            </Array>
          </mxGeometry>
        </mxCell>
        <mxCell id="kMlaYkscyfcXsW-1nqYv-115" value="承担" style="curved=1;startArrow=ERmandOne;startSize=10;;endArrow=ERmany;endSize=10;;exitX=0.51;exitY=1;entryX=0.03;entryY=0;rounded=0;" edge="1" parent="1" source="kMlaYkscyfcXsW-1nqYv-1" target="kMlaYkscyfcXsW-1nqYv-84">
          <mxGeometry relative="1" as="geometry">
            <Array as="points">
              <mxPoint x="362" y="245" />
            </Array>
          </mxGeometry>
        </mxCell>
        <mxCell id="kMlaYkscyfcXsW-1nqYv-116" value="被承担" style="curved=1;startArrow=ERmandOne;startSize=10;;endArrow=ERmany;endSize=10;;exitX=0.5;exitY=1;entryX=0.85;entryY=0;rounded=0;" edge="1" parent="1" source="kMlaYkscyfcXsW-1nqYv-36" target="kMlaYkscyfcXsW-1nqYv-84">
          <mxGeometry relative="1" as="geometry">
            <Array as="points">
              <mxPoint x="679" y="245" />
            </Array>
          </mxGeometry>
        </mxCell>
        <mxCell id="kMlaYkscyfcXsW-1nqYv-117" value="主讲" style="curved=1;startArrow=ERmandOne;startSize=10;;endArrow=ERmany;endSize=10;;exitX=1;exitY=0.97;entryX=0;entryY=0.25;rounded=0;" edge="1" parent="1" source="kMlaYkscyfcXsW-1nqYv-1" target="kMlaYkscyfcXsW-1nqYv-97">
          <mxGeometry relative="1" as="geometry">
            <Array as="points">
              <mxPoint x="545" y="245" />
            </Array>
          </mxGeometry>
        </mxCell>
        <mxCell id="kMlaYkscyfcXsW-1nqYv-118" value="被主讲" style="curved=1;startArrow=ERmandOne;startSize=10;;endArrow=ERmany;endSize=10;;exitX=0.5;exitY=1;entryX=1;entryY=0.01;rounded=0;" edge="1" parent="1" source="kMlaYkscyfcXsW-1nqYv-58" target="kMlaYkscyfcXsW-1nqYv-97">
          <mxGeometry relative="1" as="geometry">
            <Array as="points">
              <mxPoint x="945" y="245" />
            </Array>
          </mxGeometry>
        </mxCell>
        <mxCell id="kMlaYkscyfcXsW-1nqYv-119" value="teachers" style="swimlane;fontStyle=1;align=center;verticalAlign=top;childLayout=stackLayout;horizontal=1;startSize=27.166666666666668;horizontalStack=0;resizeParent=1;resizeParentMax=0;resizeLast=0;collapsible=0;marginBottom=0;" vertex="1" parent="1">
          <mxGeometry x="288" y="473" width="232" height="170.16666666666669" as="geometry" />
        </mxCell>
        <mxCell id="kMlaYkscyfcXsW-1nqYv-120" value="+ int teacher_id [PK]" style="text;strokeColor=none;fillColor=none;align=left;verticalAlign=top;spacingLeft=4;spacingRight=4;overflow=hidden;rotatable=0;points=[[0,0.5],[1,0.5]];portConstraint=eastwest;" vertex="1" parent="kMlaYkscyfcXsW-1nqYv-119">
          <mxGeometry y="27.166666666666668" width="232" height="27" as="geometry" />
        </mxCell>
        <mxCell id="kMlaYkscyfcXsW-1nqYv-121" value="+ int gender" style="text;strokeColor=none;fillColor=none;align=left;verticalAlign=top;spacingLeft=4;spacingRight=4;overflow=hidden;rotatable=0;points=[[0,0.5],[1,0.5]];portConstraint=eastwest;" vertex="1" parent="kMlaYkscyfcXsW-1nqYv-119">
          <mxGeometry y="54.16666666666667" width="232" height="27" as="geometry" />
        </mxCell>
        <mxCell id="kMlaYkscyfcXsW-1nqYv-122" value="+ int position" style="text;strokeColor=none;fillColor=none;align=left;verticalAlign=top;spacingLeft=4;spacingRight=4;overflow=hidden;rotatable=0;points=[[0,0.5],[1,0.5]];portConstraint=eastwest;" vertex="1" parent="kMlaYkscyfcXsW-1nqYv-119">
          <mxGeometry y="81.16666666666667" width="232" height="27" as="geometry" />
        </mxCell>
        <mxCell id="kMlaYkscyfcXsW-1nqYv-123" style="line;strokeWidth=1;fillColor=none;align=left;verticalAlign=middle;spacingTop=-1;spacingLeft=3;spacingRight=3;rotatable=0;labelPosition=right;points=[];portConstraint=eastwest;strokeColor=inherit;" vertex="1" parent="kMlaYkscyfcXsW-1nqYv-119">
          <mxGeometry y="108.16666666666667" width="232" height="8" as="geometry" />
        </mxCell>
        <mxCell id="kMlaYkscyfcXsW-1nqYv-124" value="+varchar(255) : teacher_name" style="text;strokeColor=none;fillColor=none;align=left;verticalAlign=top;spacingLeft=4;spacingRight=4;overflow=hidden;rotatable=0;points=[[0,0.5],[1,0.5]];portConstraint=eastwest;" vertex="1" parent="kMlaYkscyfcXsW-1nqYv-119">
          <mxGeometry y="116.16666666666667" width="232" height="27" as="geometry" />
        </mxCell>
        <mxCell id="kMlaYkscyfcXsW-1nqYv-125" value="+varchar(255) : password" style="text;strokeColor=none;fillColor=none;align=left;verticalAlign=top;spacingLeft=4;spacingRight=4;overflow=hidden;rotatable=0;points=[[0,0.5],[1,0.5]];portConstraint=eastwest;" vertex="1" parent="kMlaYkscyfcXsW-1nqYv-119">
          <mxGeometry y="143.16666666666669" width="232" height="27" as="geometry" />
        </mxCell>
        <mxCell id="kMlaYkscyfcXsW-1nqYv-126" value="papers" style="swimlane;fontStyle=1;align=center;verticalAlign=top;childLayout=stackLayout;horizontal=1;startSize=26.523810250418528;horizontalStack=0;resizeParent=1;resizeParentMax=0;resizeLast=0;collapsible=0;marginBottom=0;" vertex="1" parent="1">
          <mxGeometry x="20" y="461" width="218" height="196.52381025041853" as="geometry" />
        </mxCell>
        <mxCell id="kMlaYkscyfcXsW-1nqYv-127" value="+ int paper_id [PK]" style="text;strokeColor=none;fillColor=none;align=left;verticalAlign=top;spacingLeft=4;spacingRight=4;overflow=hidden;rotatable=0;points=[[0,0.5],[1,0.5]];portConstraint=eastwest;" vertex="1" parent="kMlaYkscyfcXsW-1nqYv-126">
          <mxGeometry y="26.523810250418528" width="218" height="27" as="geometry" />
        </mxCell>
        <mxCell id="kMlaYkscyfcXsW-1nqYv-128" value="+ int post_year" style="text;strokeColor=none;fillColor=none;align=left;verticalAlign=top;spacingLeft=4;spacingRight=4;overflow=hidden;rotatable=0;points=[[0,0.5],[1,0.5]];portConstraint=eastwest;" vertex="1" parent="kMlaYkscyfcXsW-1nqYv-126">
          <mxGeometry y="53.52381025041853" width="218" height="27" as="geometry" />
        </mxCell>
        <mxCell id="kMlaYkscyfcXsW-1nqYv-129" value="+ int paper_type" style="text;strokeColor=none;fillColor=none;align=left;verticalAlign=top;spacingLeft=4;spacingRight=4;overflow=hidden;rotatable=0;points=[[0,0.5],[1,0.5]];portConstraint=eastwest;" vertex="1" parent="kMlaYkscyfcXsW-1nqYv-126">
          <mxGeometry y="80.52381025041853" width="218" height="27" as="geometry" />
        </mxCell>
        <mxCell id="kMlaYkscyfcXsW-1nqYv-130" value="+ int level" style="text;strokeColor=none;fillColor=none;align=left;verticalAlign=top;spacingLeft=4;spacingRight=4;overflow=hidden;rotatable=0;points=[[0,0.5],[1,0.5]];portConstraint=eastwest;" vertex="1" parent="kMlaYkscyfcXsW-1nqYv-126">
          <mxGeometry y="107.52381025041853" width="218" height="27" as="geometry" />
        </mxCell>
        <mxCell id="kMlaYkscyfcXsW-1nqYv-131" style="line;strokeWidth=1;fillColor=none;align=left;verticalAlign=middle;spacingTop=-1;spacingLeft=3;spacingRight=3;rotatable=0;labelPosition=right;points=[];portConstraint=eastwest;strokeColor=inherit;" vertex="1" parent="kMlaYkscyfcXsW-1nqYv-126">
          <mxGeometry y="134.52381025041853" width="218" height="8" as="geometry" />
        </mxCell>
        <mxCell id="kMlaYkscyfcXsW-1nqYv-132" value="+varchar(255) : paper_name" style="text;strokeColor=none;fillColor=none;align=left;verticalAlign=top;spacingLeft=4;spacingRight=4;overflow=hidden;rotatable=0;points=[[0,0.5],[1,0.5]];portConstraint=eastwest;" vertex="1" parent="kMlaYkscyfcXsW-1nqYv-126">
          <mxGeometry y="142.52381025041853" width="218" height="27" as="geometry" />
        </mxCell>
        <mxCell id="kMlaYkscyfcXsW-1nqYv-133" value="+varchar(255) : source" style="text;strokeColor=none;fillColor=none;align=left;verticalAlign=top;spacingLeft=4;spacingRight=4;overflow=hidden;rotatable=0;points=[[0,0.5],[1,0.5]];portConstraint=eastwest;" vertex="1" parent="kMlaYkscyfcXsW-1nqYv-126">
          <mxGeometry y="169.52381025041853" width="218" height="27" as="geometry" />
        </mxCell>
        <mxCell id="kMlaYkscyfcXsW-1nqYv-134" value="projects" style="swimlane;fontStyle=1;align=center;verticalAlign=top;childLayout=stackLayout;horizontal=1;startSize=26.04166603088379;horizontalStack=0;resizeParent=1;resizeParentMax=0;resizeLast=0;collapsible=0;marginBottom=0;" vertex="1" parent="1">
          <mxGeometry x="593" y="450" width="237" height="216.0416660308838" as="geometry" />
        </mxCell>
        <mxCell id="kMlaYkscyfcXsW-1nqYv-135" value="+ int project_id [PK]" style="text;strokeColor=none;fillColor=none;align=left;verticalAlign=top;spacingLeft=4;spacingRight=4;overflow=hidden;rotatable=0;points=[[0,0.5],[1,0.5]];portConstraint=eastwest;" vertex="1" parent="kMlaYkscyfcXsW-1nqYv-134">
          <mxGeometry y="26.04166603088379" width="237" height="26" as="geometry" />
        </mxCell>
        <mxCell id="kMlaYkscyfcXsW-1nqYv-136" value="+ int project_type" style="text;strokeColor=none;fillColor=none;align=left;verticalAlign=top;spacingLeft=4;spacingRight=4;overflow=hidden;rotatable=0;points=[[0,0.5],[1,0.5]];portConstraint=eastwest;" vertex="1" parent="kMlaYkscyfcXsW-1nqYv-134">
          <mxGeometry y="52.04166603088379" width="237" height="26" as="geometry" />
        </mxCell>
        <mxCell id="kMlaYkscyfcXsW-1nqYv-137" value="+ int project_money" style="text;strokeColor=none;fillColor=none;align=left;verticalAlign=top;spacingLeft=4;spacingRight=4;overflow=hidden;rotatable=0;points=[[0,0.5],[1,0.5]];portConstraint=eastwest;" vertex="1" parent="kMlaYkscyfcXsW-1nqYv-134">
          <mxGeometry y="78.04166603088379" width="237" height="26" as="geometry" />
        </mxCell>
        <mxCell id="kMlaYkscyfcXsW-1nqYv-138" value="+ int start_year" style="text;strokeColor=none;fillColor=none;align=left;verticalAlign=top;spacingLeft=4;spacingRight=4;overflow=hidden;rotatable=0;points=[[0,0.5],[1,0.5]];portConstraint=eastwest;" vertex="1" parent="kMlaYkscyfcXsW-1nqYv-134">
          <mxGeometry y="104.04166603088379" width="237" height="26" as="geometry" />
        </mxCell>
        <mxCell id="kMlaYkscyfcXsW-1nqYv-139" value="+ int end_year" style="text;strokeColor=none;fillColor=none;align=left;verticalAlign=top;spacingLeft=4;spacingRight=4;overflow=hidden;rotatable=0;points=[[0,0.5],[1,0.5]];portConstraint=eastwest;" vertex="1" parent="kMlaYkscyfcXsW-1nqYv-134">
          <mxGeometry y="130.0416660308838" width="237" height="26" as="geometry" />
        </mxCell>
        <mxCell id="kMlaYkscyfcXsW-1nqYv-140" style="line;strokeWidth=1;fillColor=none;align=left;verticalAlign=middle;spacingTop=-1;spacingLeft=3;spacingRight=3;rotatable=0;labelPosition=right;points=[];portConstraint=eastwest;strokeColor=inherit;" vertex="1" parent="kMlaYkscyfcXsW-1nqYv-134">
          <mxGeometry y="156.0416660308838" width="237" height="8" as="geometry" />
        </mxCell>
        <mxCell id="kMlaYkscyfcXsW-1nqYv-141" value="+varchar(255) : project_name" style="text;strokeColor=none;fillColor=none;align=left;verticalAlign=top;spacingLeft=4;spacingRight=4;overflow=hidden;rotatable=0;points=[[0,0.5],[1,0.5]];portConstraint=eastwest;" vertex="1" parent="kMlaYkscyfcXsW-1nqYv-134">
          <mxGeometry y="164.0416660308838" width="237" height="26" as="geometry" />
        </mxCell>
        <mxCell id="kMlaYkscyfcXsW-1nqYv-142" value="+varchar(255) : project_source" style="text;strokeColor=none;fillColor=none;align=left;verticalAlign=top;spacingLeft=4;spacingRight=4;overflow=hidden;rotatable=0;points=[[0,0.5],[1,0.5]];portConstraint=eastwest;" vertex="1" parent="kMlaYkscyfcXsW-1nqYv-134">
          <mxGeometry y="190.0416660308838" width="237" height="26" as="geometry" />
        </mxCell>
        <mxCell id="kMlaYkscyfcXsW-1nqYv-143" value="courses" style="swimlane;fontStyle=1;align=center;verticalAlign=top;childLayout=stackLayout;horizontal=1;startSize=28.066668701171874;horizontalStack=0;resizeParent=1;resizeParentMax=0;resizeLast=0;collapsible=0;marginBottom=0;" vertex="1" parent="1">
          <mxGeometry x="881" y="484" width="224" height="148.06666870117186" as="geometry" />
        </mxCell>
        <mxCell id="kMlaYkscyfcXsW-1nqYv-144" value="+ int course_id [PK]" style="text;strokeColor=none;fillColor=none;align=left;verticalAlign=top;spacingLeft=4;spacingRight=4;overflow=hidden;rotatable=0;points=[[0,0.5],[1,0.5]];portConstraint=eastwest;" vertex="1" parent="kMlaYkscyfcXsW-1nqYv-143">
          <mxGeometry y="28.066668701171874" width="224" height="28" as="geometry" />
        </mxCell>
        <mxCell id="kMlaYkscyfcXsW-1nqYv-145" value="+ int hour" style="text;strokeColor=none;fillColor=none;align=left;verticalAlign=top;spacingLeft=4;spacingRight=4;overflow=hidden;rotatable=0;points=[[0,0.5],[1,0.5]];portConstraint=eastwest;" vertex="1" parent="kMlaYkscyfcXsW-1nqYv-143">
          <mxGeometry y="56.06666870117188" width="224" height="28" as="geometry" />
        </mxCell>
        <mxCell id="kMlaYkscyfcXsW-1nqYv-146" value="+ int course_type" style="text;strokeColor=none;fillColor=none;align=left;verticalAlign=top;spacingLeft=4;spacingRight=4;overflow=hidden;rotatable=0;points=[[0,0.5],[1,0.5]];portConstraint=eastwest;" vertex="1" parent="kMlaYkscyfcXsW-1nqYv-143">
          <mxGeometry y="84.06666870117188" width="224" height="28" as="geometry" />
        </mxCell>
        <mxCell id="kMlaYkscyfcXsW-1nqYv-147" style="line;strokeWidth=1;fillColor=none;align=left;verticalAlign=middle;spacingTop=-1;spacingLeft=3;spacingRight=3;rotatable=0;labelPosition=right;points=[];portConstraint=eastwest;strokeColor=inherit;" vertex="1" parent="kMlaYkscyfcXsW-1nqYv-143">
          <mxGeometry y="112.06666870117188" width="224" height="8" as="geometry" />
        </mxCell>
        <mxCell id="kMlaYkscyfcXsW-1nqYv-148" value="+varchar(255) : course_name" style="text;strokeColor=none;fillColor=none;align=left;verticalAlign=top;spacingLeft=4;spacingRight=4;overflow=hidden;rotatable=0;points=[[0,0.5],[1,0.5]];portConstraint=eastwest;" vertex="1" parent="kMlaYkscyfcXsW-1nqYv-143">
          <mxGeometry y="120.06666870117188" width="224" height="28" as="geometry" />
        </mxCell>
        <mxCell id="kMlaYkscyfcXsW-1nqYv-149" value="teacher_post_paper" style="swimlane;fontStyle=1;align=center;verticalAlign=top;childLayout=stackLayout;horizontal=1;startSize=25.515153364701703;horizontalStack=0;resizeParent=1;resizeParentMax=0;resizeLast=0;collapsible=0;marginBottom=0;" vertex="1" parent="1">
          <mxGeometry x="60" y="746" width="198" height="142.5151533647017" as="geometry" />
        </mxCell>
        <mxCell id="kMlaYkscyfcXsW-1nqYv-150" value="+ int teacher_id [FK]" style="text;strokeColor=none;fillColor=none;align=left;verticalAlign=top;spacingLeft=4;spacingRight=4;overflow=hidden;rotatable=0;points=[[0,0.5],[1,0.5]];portConstraint=eastwest;" vertex="1" parent="kMlaYkscyfcXsW-1nqYv-149">
          <mxGeometry y="25.515153364701703" width="198" height="26" as="geometry" />
        </mxCell>
        <mxCell id="kMlaYkscyfcXsW-1nqYv-151" value="+ int paper_id [FK]" style="text;strokeColor=none;fillColor=none;align=left;verticalAlign=top;spacingLeft=4;spacingRight=4;overflow=hidden;rotatable=0;points=[[0,0.5],[1,0.5]];portConstraint=eastwest;" vertex="1" parent="kMlaYkscyfcXsW-1nqYv-149">
          <mxGeometry y="51.5151533647017" width="198" height="26" as="geometry" />
        </mxCell>
        <mxCell id="kMlaYkscyfcXsW-1nqYv-152" value="+ int teacher_paper_rank" style="text;strokeColor=none;fillColor=none;align=left;verticalAlign=top;spacingLeft=4;spacingRight=4;overflow=hidden;rotatable=0;points=[[0,0.5],[1,0.5]];portConstraint=eastwest;" vertex="1" parent="kMlaYkscyfcXsW-1nqYv-149">
          <mxGeometry y="77.5151533647017" width="198" height="26" as="geometry" />
        </mxCell>
        <mxCell id="kMlaYkscyfcXsW-1nqYv-153" value="+ int is_cor" style="text;strokeColor=none;fillColor=none;align=left;verticalAlign=top;spacingLeft=4;spacingRight=4;overflow=hidden;rotatable=0;points=[[0,0.5],[1,0.5]];portConstraint=eastwest;" vertex="1" parent="kMlaYkscyfcXsW-1nqYv-149">
          <mxGeometry y="103.5151533647017" width="198" height="26" as="geometry" />
        </mxCell>
        <mxCell id="kMlaYkscyfcXsW-1nqYv-154" style="line;strokeWidth=1;fillColor=none;align=left;verticalAlign=middle;spacingTop=-1;spacingLeft=3;spacingRight=3;rotatable=0;labelPosition=right;points=[];portConstraint=eastwest;strokeColor=inherit;" vertex="1" parent="kMlaYkscyfcXsW-1nqYv-149">
          <mxGeometry y="129.5151533647017" width="198" height="13" as="geometry" />
        </mxCell>
        <mxCell id="kMlaYkscyfcXsW-1nqYv-155" value="teacher_hold_project" style="swimlane;fontStyle=1;align=center;verticalAlign=top;childLayout=stackLayout;horizontal=1;startSize=25.515153364701703;horizontalStack=0;resizeParent=1;resizeParentMax=0;resizeLast=0;collapsible=0;marginBottom=0;" vertex="1" parent="1">
          <mxGeometry x="445" y="746" width="255" height="142.5151533647017" as="geometry" />
        </mxCell>
        <mxCell id="kMlaYkscyfcXsW-1nqYv-156" value="+ int teacher_id [FK]" style="text;strokeColor=none;fillColor=none;align=left;verticalAlign=top;spacingLeft=4;spacingRight=4;overflow=hidden;rotatable=0;points=[[0,0.5],[1,0.5]];portConstraint=eastwest;" vertex="1" parent="kMlaYkscyfcXsW-1nqYv-155">
          <mxGeometry y="25.515153364701703" width="255" height="26" as="geometry" />
        </mxCell>
        <mxCell id="kMlaYkscyfcXsW-1nqYv-157" value="+ int project_id [FK]" style="text;strokeColor=none;fillColor=none;align=left;verticalAlign=top;spacingLeft=4;spacingRight=4;overflow=hidden;rotatable=0;points=[[0,0.5],[1,0.5]];portConstraint=eastwest;" vertex="1" parent="kMlaYkscyfcXsW-1nqYv-155">
          <mxGeometry y="51.5151533647017" width="255" height="26" as="geometry" />
        </mxCell>
        <mxCell id="kMlaYkscyfcXsW-1nqYv-158" value="+ int teacher_project_rank" style="text;strokeColor=none;fillColor=none;align=left;verticalAlign=top;spacingLeft=4;spacingRight=4;overflow=hidden;rotatable=0;points=[[0,0.5],[1,0.5]];portConstraint=eastwest;" vertex="1" parent="kMlaYkscyfcXsW-1nqYv-155">
          <mxGeometry y="77.5151533647017" width="255" height="26" as="geometry" />
        </mxCell>
        <mxCell id="kMlaYkscyfcXsW-1nqYv-159" value="+ int teacher_hold_projectmoney" style="text;strokeColor=none;fillColor=none;align=left;verticalAlign=top;spacingLeft=4;spacingRight=4;overflow=hidden;rotatable=0;points=[[0,0.5],[1,0.5]];portConstraint=eastwest;" vertex="1" parent="kMlaYkscyfcXsW-1nqYv-155">
          <mxGeometry y="103.5151533647017" width="255" height="26" as="geometry" />
        </mxCell>
        <mxCell id="kMlaYkscyfcXsW-1nqYv-160" style="line;strokeWidth=1;fillColor=none;align=left;verticalAlign=middle;spacingTop=-1;spacingLeft=3;spacingRight=3;rotatable=0;labelPosition=right;points=[];portConstraint=eastwest;strokeColor=inherit;" vertex="1" parent="kMlaYkscyfcXsW-1nqYv-155">
          <mxGeometry y="129.5151533647017" width="255" height="13" as="geometry" />
        </mxCell>
        <mxCell id="kMlaYkscyfcXsW-1nqYv-161" value="teacher_teach_course" style="swimlane;fontStyle=1;align=center;verticalAlign=top;childLayout=stackLayout;horizontal=1;startSize=25.076923076923077;horizontalStack=0;resizeParent=1;resizeParentMax=0;resizeLast=0;collapsible=0;marginBottom=0;" vertex="1" parent="1">
          <mxGeometry x="756" y="735" width="183" height="163.0769230769231" as="geometry" />
        </mxCell>
        <mxCell id="kMlaYkscyfcXsW-1nqYv-162" value="+ int teacher_id [FK]" style="text;strokeColor=none;fillColor=none;align=left;verticalAlign=top;spacingLeft=4;spacingRight=4;overflow=hidden;rotatable=0;points=[[0,0.5],[1,0.5]];portConstraint=eastwest;" vertex="1" parent="kMlaYkscyfcXsW-1nqYv-161">
          <mxGeometry y="25.076923076923077" width="183" height="25" as="geometry" />
        </mxCell>
        <mxCell id="kMlaYkscyfcXsW-1nqYv-163" value="+ int course_id [FK]" style="text;strokeColor=none;fillColor=none;align=left;verticalAlign=top;spacingLeft=4;spacingRight=4;overflow=hidden;rotatable=0;points=[[0,0.5],[1,0.5]];portConstraint=eastwest;" vertex="1" parent="kMlaYkscyfcXsW-1nqYv-161">
          <mxGeometry y="50.07692307692308" width="183" height="25" as="geometry" />
        </mxCell>
        <mxCell id="kMlaYkscyfcXsW-1nqYv-164" value="+ int year" style="text;strokeColor=none;fillColor=none;align=left;verticalAlign=top;spacingLeft=4;spacingRight=4;overflow=hidden;rotatable=0;points=[[0,0.5],[1,0.5]];portConstraint=eastwest;" vertex="1" parent="kMlaYkscyfcXsW-1nqYv-161">
          <mxGeometry y="75.07692307692308" width="183" height="25" as="geometry" />
        </mxCell>
        <mxCell id="kMlaYkscyfcXsW-1nqYv-165" value="+ int term" style="text;strokeColor=none;fillColor=none;align=left;verticalAlign=top;spacingLeft=4;spacingRight=4;overflow=hidden;rotatable=0;points=[[0,0.5],[1,0.5]];portConstraint=eastwest;" vertex="1" parent="kMlaYkscyfcXsW-1nqYv-161">
          <mxGeometry y="100.07692307692308" width="183" height="25" as="geometry" />
        </mxCell>
        <mxCell id="kMlaYkscyfcXsW-1nqYv-166" value="+ int own_hour" style="text;strokeColor=none;fillColor=none;align=left;verticalAlign=top;spacingLeft=4;spacingRight=4;overflow=hidden;rotatable=0;points=[[0,0.5],[1,0.5]];portConstraint=eastwest;" vertex="1" parent="kMlaYkscyfcXsW-1nqYv-161">
          <mxGeometry y="125.07692307692308" width="183" height="25" as="geometry" />
        </mxCell>
        <mxCell id="kMlaYkscyfcXsW-1nqYv-167" style="line;strokeWidth=1;fillColor=none;align=left;verticalAlign=middle;spacingTop=-1;spacingLeft=3;spacingRight=3;rotatable=0;labelPosition=right;points=[];portConstraint=eastwest;strokeColor=inherit;" vertex="1" parent="kMlaYkscyfcXsW-1nqYv-161">
          <mxGeometry y="150.0769230769231" width="183" height="13" as="geometry" />
        </mxCell>
        <mxCell id="kMlaYkscyfcXsW-1nqYv-168" value="发表" style="curved=1;startArrow=none;endArrow=none;exitX=0.16;exitY=1;entryX=0.85;entryY=0;rounded=0;" edge="1" parent="1" source="kMlaYkscyfcXsW-1nqYv-119" target="kMlaYkscyfcXsW-1nqYv-149">
          <mxGeometry relative="1" as="geometry">
            <Array as="points">
              <mxPoint x="271" y="701" />
            </Array>
          </mxGeometry>
        </mxCell>
        <mxCell id="kMlaYkscyfcXsW-1nqYv-169" value="1" style="edgeLabel;resizable=0;labelBackgroundColor=none;fontSize=12;align=right;verticalAlign=top;" vertex="1" parent="kMlaYkscyfcXsW-1nqYv-168">
          <mxGeometry x="-1" relative="1" as="geometry" />
        </mxCell>
        <mxCell id="kMlaYkscyfcXsW-1nqYv-170" value="*" style="edgeLabel;resizable=0;labelBackgroundColor=none;fontSize=12;align=left;verticalAlign=bottom;" vertex="1" parent="kMlaYkscyfcXsW-1nqYv-168">
          <mxGeometry x="1" relative="1" as="geometry" />
        </mxCell>
        <mxCell id="kMlaYkscyfcXsW-1nqYv-171" value="被发表" style="curved=1;startArrow=none;endArrow=none;exitX=0.5;exitY=1;entryX=0.41;entryY=0;rounded=0;" edge="1" parent="1" source="kMlaYkscyfcXsW-1nqYv-126" target="kMlaYkscyfcXsW-1nqYv-149">
          <mxGeometry relative="1" as="geometry">
            <Array as="points">
              <mxPoint x="129" y="701" />
            </Array>
          </mxGeometry>
        </mxCell>
        <mxCell id="kMlaYkscyfcXsW-1nqYv-172" value="1" style="edgeLabel;resizable=0;labelBackgroundColor=none;fontSize=12;align=right;verticalAlign=top;" vertex="1" parent="kMlaYkscyfcXsW-1nqYv-171">
          <mxGeometry x="-1" relative="1" as="geometry" />
        </mxCell>
        <mxCell id="kMlaYkscyfcXsW-1nqYv-173" value="*" style="edgeLabel;resizable=0;labelBackgroundColor=none;fontSize=12;align=left;verticalAlign=bottom;" vertex="1" parent="kMlaYkscyfcXsW-1nqYv-171">
          <mxGeometry x="1" relative="1" as="geometry" />
        </mxCell>
        <mxCell id="kMlaYkscyfcXsW-1nqYv-174" value="承担" style="curved=1;startArrow=none;endArrow=none;exitX=0.5;exitY=1;entryX=0.09;entryY=0;rounded=0;" edge="1" parent="1" source="kMlaYkscyfcXsW-1nqYv-119" target="kMlaYkscyfcXsW-1nqYv-155">
          <mxGeometry relative="1" as="geometry">
            <Array as="points">
              <mxPoint x="405" y="701" />
            </Array>
          </mxGeometry>
        </mxCell>
        <mxCell id="kMlaYkscyfcXsW-1nqYv-175" value="1" style="edgeLabel;resizable=0;labelBackgroundColor=none;fontSize=12;align=right;verticalAlign=top;" vertex="1" parent="kMlaYkscyfcXsW-1nqYv-174">
          <mxGeometry x="-1" relative="1" as="geometry" />
        </mxCell>
        <mxCell id="kMlaYkscyfcXsW-1nqYv-176" value="*" style="edgeLabel;resizable=0;labelBackgroundColor=none;fontSize=12;align=left;verticalAlign=bottom;" vertex="1" parent="kMlaYkscyfcXsW-1nqYv-174">
          <mxGeometry x="1" relative="1" as="geometry" />
        </mxCell>
        <mxCell id="kMlaYkscyfcXsW-1nqYv-177" value="被承担" style="curved=1;startArrow=none;endArrow=none;exitX=0.5;exitY=1;entryX=0.84;entryY=0;rounded=0;" edge="1" parent="1" source="kMlaYkscyfcXsW-1nqYv-134" target="kMlaYkscyfcXsW-1nqYv-155">
          <mxGeometry relative="1" as="geometry">
            <Array as="points">
              <mxPoint x="712" y="701" />
            </Array>
          </mxGeometry>
        </mxCell>
        <mxCell id="kMlaYkscyfcXsW-1nqYv-178" value="1" style="edgeLabel;resizable=0;labelBackgroundColor=none;fontSize=12;align=right;verticalAlign=top;" vertex="1" parent="kMlaYkscyfcXsW-1nqYv-177">
          <mxGeometry x="-1" relative="1" as="geometry" />
        </mxCell>
        <mxCell id="kMlaYkscyfcXsW-1nqYv-179" value="*" style="edgeLabel;resizable=0;labelBackgroundColor=none;fontSize=12;align=left;verticalAlign=bottom;" vertex="1" parent="kMlaYkscyfcXsW-1nqYv-177">
          <mxGeometry x="1" relative="1" as="geometry" />
        </mxCell>
        <mxCell id="kMlaYkscyfcXsW-1nqYv-180" value="主讲" style="curved=1;startArrow=none;endArrow=none;exitX=0.92;exitY=1;entryX=0;entryY=0.27;rounded=0;" edge="1" parent="1" source="kMlaYkscyfcXsW-1nqYv-119" target="kMlaYkscyfcXsW-1nqYv-161">
          <mxGeometry relative="1" as="geometry">
            <Array as="points">
              <mxPoint x="566" y="701" />
            </Array>
          </mxGeometry>
        </mxCell>
        <mxCell id="kMlaYkscyfcXsW-1nqYv-181" value="1" style="edgeLabel;resizable=0;labelBackgroundColor=none;fontSize=12;align=left;verticalAlign=top;" vertex="1" parent="kMlaYkscyfcXsW-1nqYv-180">
          <mxGeometry x="-1" relative="1" as="geometry" />
        </mxCell>
        <mxCell id="kMlaYkscyfcXsW-1nqYv-182" value="*" style="edgeLabel;resizable=0;labelBackgroundColor=none;fontSize=12;align=right;verticalAlign=bottom;" vertex="1" parent="kMlaYkscyfcXsW-1nqYv-180">
          <mxGeometry x="1" relative="1" as="geometry" />
        </mxCell>
        <mxCell id="kMlaYkscyfcXsW-1nqYv-183" value="被主讲" style="curved=1;startArrow=none;endArrow=none;exitX=0.5;exitY=1;entryX=1;entryY=0.06;rounded=0;" edge="1" parent="1" source="kMlaYkscyfcXsW-1nqYv-143" target="kMlaYkscyfcXsW-1nqYv-161">
          <mxGeometry relative="1" as="geometry">
            <Array as="points">
              <mxPoint x="993" y="701" />
            </Array>
          </mxGeometry>
        </mxCell>
        <mxCell id="kMlaYkscyfcXsW-1nqYv-184" value="1" style="edgeLabel;resizable=0;labelBackgroundColor=none;fontSize=12;align=right;verticalAlign=top;" vertex="1" parent="kMlaYkscyfcXsW-1nqYv-183">
          <mxGeometry x="-1" relative="1" as="geometry" />
        </mxCell>
        <mxCell id="kMlaYkscyfcXsW-1nqYv-185" value="*" style="edgeLabel;resizable=0;labelBackgroundColor=none;fontSize=12;align=left;verticalAlign=bottom;" vertex="1" parent="kMlaYkscyfcXsW-1nqYv-183">
          <mxGeometry x="1" relative="1" as="geometry" />
        </mxCell>
      </root>
    </mxGraphModel>
  </diagram>
</mxfile>
